<?xml version="1.0" encoding="UTF-8" standalone="no"?>
<!-- Created with Inkscape (http://www.inkscape.org/) -->

<svg
   version="1.1"
   id="svg41"
   width="23.999998"
   height="23.999998"
   viewBox="0 0 23.999998 23.999998"
   xmlns="http://www.w3.org/2000/svg"
   xmlns:svg="http://www.w3.org/2000/svg">
  <defs
     id="defs45" />
  <g
     id="g47">
    <circle
       style="fill:#6366f1;fill-opacity:1;fill-rule:evenodd;stroke-width:0.0447888"
       id="path292"
       cx="11.999999"
       cy="11.999999"
       r="11.999999" />
    <path
       style="fill:#ffffff;fill-opacity:1;stroke-width:0.0347863"
       d="M 13.475324,20.863904 C 10.931827,20.763091 9.2104775,20.34598 7.1616313,19.333989 6.7789832,19.144988 6.3093696,18.932601 6.1180454,18.86202 4.9096402,18.416228 3.8817252,17.741367 3.6487069,17.240813 c -0.107868,-0.231714 -0.1078409,-0.353354 1.97e-4,-0.899502 0.080417,-0.40651 0.086041,-0.506186 0.086357,-1.530592 3.628e-4,-1.167502 0.033018,-1.538682 0.1759868,-2.000206 C 4.071008,12.294781 4.3475663,11.877723 4.7207725,11.589724 5.3232392,11.124809 6.2288927,10.162865 8.7623939,7.2969024 10.588512,5.2311498 11.147517,4.6145797 11.683214,4.0753029 12.234683,3.5201489 12.386589,3.426564 12.936135,3.3034102 13.612923,3.1517418 14.100215,3.1254654 16.318898,3.1210001 l 1.921742,-0.00387 0.146595,0.080982 c 0.473364,0.2614974 0.950228,1.298215 1.560031,3.3915557 0.07208,0.247433 0.09923,0.4000781 0.08373,0.4706809 -0.03115,0.1418385 -0.24526,0.3479296 -0.46431,0.4469285 -0.144983,0.065524 -0.192768,0.1093165 -0.242872,0.2225842 -0.108501,0.2452804 -0.372235,0.4328071 -0.711356,0.5058034 -0.07992,0.017203 -0.239237,0.065088 -0.354031,0.1064083 -0.181221,0.065231 -0.252252,0.07217 -0.539186,0.052679 -0.181758,-0.012348 -0.369603,-0.024424 -0.417434,-0.026838 -0.04783,-0.00241 -0.180264,0.021737 -0.294295,0.053665 -0.13417,0.037567 -0.337809,0.05805 -0.577103,0.05805 -0.726197,0 -1.314008,-0.2441284 -1.547619,-0.6427549 l -0.08742,-0.1491731 -0.258206,0.100261 c -0.142012,0.055144 -0.348388,0.123751 -0.458612,0.152461 -0.222518,0.057958 -0.666365,0.069141 -0.834164,0.021017 l -0.108727,-0.031182 -0.26401,0.4225271 c -0.145205,0.2323898 -0.398297,0.6338532 -0.562427,0.8921408 -0.337941,0.5318135 -0.693056,1.227853 -0.745401,1.46102 -0.01933,0.0861 -0.05067,0.500921 -0.06964,0.921834 -0.01897,0.420913 -0.0424,0.933574 -0.05205,1.139247 -0.0097,0.205674 -0.01139,0.373952 -0.0038,0.373952 0.0075,0 0.134196,-0.07124 0.281464,-0.158304 0.977156,-0.57771 2.041669,-1.005102 2.955712,-1.18669 0.4442,-0.08825 1.483558,-0.0887 1.895846,-8.28e-4 0.694897,0.148106 1.541257,0.522374 2.055946,0.909158 0.600995,0.451642 1.232236,1.204704 1.559985,1.861042 0.262467,0.525606 0.258238,0.49146 0.234794,1.896217 -0.02797,1.675677 -0.100359,2.404091 -0.272455,2.741426 -0.06334,0.124164 -0.115682,0.158915 -0.563052,0.373838 -1.174982,0.564479 -2.60316,1.037889 -3.728334,1.235863 -0.385527,0.06783 -1.40858,0.08982 -2.382854,0.0512 z M 12.866566,20.047947 C 11.80769,19.775202 10.982929,19.437659 10.493469,19.076733 10.374475,18.988986 10.108361,18.74648 9.9021042,18.53783 9.2973745,17.926082 8.791718,17.46752 8.5961657,17.353521 c -0.20394,-0.118889 -0.199629,-0.144678 0.0066,-0.03947 0.1961686,0.100077 0.5688077,0.409134 1.2506696,1.037268 0.6398457,0.58943 0.8545467,0.737043 1.4376637,0.988438 0.745798,0.321532 1.97321,0.596162 3.558282,0.796157 0.506763,0.06394 0.631594,0.069 0.872558,0.03536 0.38355,-0.05355 1.036672,-0.216213 1.570772,-0.391212 l 0.443924,-0.145453 -0.330469,-0.05967 c -1.103348,-0.199213 -2.02907,-0.792403 -3.036514,-1.945758 -0.359792,-0.4119 -0.398744,-0.445146 -0.715682,-0.610835 -0.184349,-0.09637 -0.478558,-0.256015 -0.653798,-0.35476 -0.175239,-0.09874 -0.558756,-0.299758 -0.852261,-0.446695 -1.046261,-0.523792 -1.434425,-0.854114 -1.666084,-1.417816 l -0.05482,-0.133395 -0.204021,0.27254 c -0.6500733,0.868396 -1.5458093,1.858711 -1.9234468,2.126538 -0.1185461,0.08408 -0.1364061,0.109122 -0.086966,0.121969 0.040738,0.01059 0.029878,0.01756 -0.031456,0.0202 -0.051521,0.0022 -0.1454431,0.03448 -0.2087171,0.07169 -0.2909458,0.171087 -1.4015698,0.56396 -1.9729785,0.697922 l -0.1881976,0.04412 0.096991,0.05082 c 0.053345,0.02795 0.2632644,0.112823 0.4664873,0.188604 0.2032229,0.07578 0.6434375,0.274813 0.9782544,0.442291 1.5327355,0.766682 2.8593553,1.177492 4.4526323,1.378833 0.539351,0.06816 1.049982,0.110488 1.391447,0.11535 l 0.260897,0.0037 z m 5.650338,-0.716709 c 0.336147,-0.134854 0.720752,-0.303132 0.854679,-0.373951 l 0.243503,-0.128764 0.04229,-0.278289 c 0.05147,-0.338708 0.114249,-1.353903 0.114249,-1.847527 V 16.341311 H 19.34064 c -0.733043,0 -1.109428,0.09904 -2.247552,0.591426 -0.914449,0.395616 -1.225758,0.488095 -1.721916,0.511521 -0.218005,0.01029 -0.471246,0.0015 -0.588558,-0.02056 -0.113251,-0.02124 -0.211104,-0.03343 -0.217451,-0.02708 -0.0063,0.0063 0.113092,0.160856 0.26542,0.343354 0.835551,1.001039 1.767011,1.594582 2.801691,1.78529 0.133927,0.02469 0.250243,0.0463 0.258479,0.04802 0.0082,0.0017 0.290006,-0.107196 0.626152,-0.242049 z M 5.7701834,17.692429 c 1.2268043,-0.298345 2.2177075,-0.714182 2.5186846,-1.056976 0.055616,-0.06334 0.1084672,-0.107822 0.1174469,-0.09884 0.028673,0.02867 0.6450885,-0.648016 1.0591277,-1.162691 0.2876614,-0.357581 0.4104405,-0.538833 0.4359325,-0.643545 0.019518,-0.08017 0.033003,-0.424766 0.029966,-0.765764 -0.00324,-0.364044 0.010471,-0.679982 0.033214,-0.765296 0.052907,-0.198461 0.3188389,-0.859431 0.6346239,-1.577353 0.201188,-0.45739 0.271278,-0.659012 0.299412,-0.861293 0.071,-0.510488 0.315365,-1.0063853 1.119605,-2.2720776 0.25235,-0.3971417 0.51277,-0.8200697 0.57871,-0.9398403 0.11692,-0.2123656 0.118834,-0.2221753 0.07722,-0.3956593 -0.0503,-0.2096769 -0.02763,-0.4770987 0.06743,-0.7954166 l 0.06752,-0.2261104 0.0046,0.3652552 c 0.0066,0.5204718 0.03416,0.581909 0.327199,0.7289752 0.388474,0.1949638 0.646976,0.1707922 1.376352,-0.1286934 0.249557,-0.1024696 0.323197,-0.1181645 0.487006,-0.1037944 0.144671,0.012691 0.255496,-0.00379 0.442629,-0.065848 0.1373,-0.045528 0.289925,-0.082778 0.339165,-0.082778 0.08799,0 0.08952,-0.00433 0.08905,-0.2521994 -6.72e-4,-0.3569322 -0.01943,-0.4080066 -0.151424,-0.4122056 -0.05995,-0.0019 -0.148132,-0.016 -0.195963,-0.031319 -0.06327,-0.020262 -0.02343,-0.028796 0.146207,-0.031319 l 0.233171,-0.00347 0.03704,0.1304482 c 0.02037,0.071747 0.05544,0.2351362 0.07792,0.3630879 0.03881,0.2209212 0.04711,0.2350158 0.164612,0.2797943 l 0.123739,0.047154 -0.121751,0.00535 c -0.130638,0.00575 -0.610781,0.1768816 -0.74739,0.2663911 -0.0725,0.0475 -0.07899,0.068386 -0.05129,0.1649787 0.04314,0.1504356 0.14842,0.2544813 0.34118,0.3371919 0.463367,0.1988255 1.237931,0.169015 1.355462,-0.052166 0.01865,-0.035102 0.04668,-0.5177808 0.06228,-1.0726212 l 0.02837,-1.008799 0.04502,0.695724 c 0.08051,1.244186 0.06746,1.1630032 0.214541,1.3349196 0.129947,0.1518918 0.130663,0.1521896 0.36546,0.1521896 0.129392,0 0.251436,-0.016177 0.271209,-0.03595 0.02474,-0.024743 -0.01433,-0.4137884 -0.125344,-1.2479541 -0.08871,-0.6666028 -0.168755,-1.2589659 -0.177875,-1.3163632 -0.04456,-0.2804257 0.06597,0.1312155 0.333927,1.243606 0.199295,0.8273614 0.305602,1.2088204 0.336879,1.2088204 0.02513,0 0.09999,-0.022682 0.166333,-0.050404 0.09408,-0.039309 0.120635,-0.070442 0.120635,-0.1414318 0,-0.050065 0.01569,-0.1203466 0.03487,-0.1561808 0.02609,-0.04875 -0.02653,-0.3304122 -0.208988,-1.1187536 -0.134122,-0.5794801 -0.239822,-1.0654855 -0.23489,-1.0800118 0.0049,-0.014526 0.165459,0.4052651 0.356725,0.9328694 0.191267,0.5276043 0.356777,0.9738736 0.3678,0.9917094 0.01619,0.026187 0.255779,-0.045829 0.304775,-0.091608 C 19.36644,6.8792411 18.98599,5.6660068 18.809985,5.1794178 18.659672,4.7638571 18.333525,4.026997 18.299904,4.026997 c -0.0085,0 -0.0083,0.066529 6.09e-4,0.1478413 0.0089,0.081313 -0.0036,0.1948027 -0.02768,0.2521999 l -0.04383,0.1043584 -0.02331,-0.1913239 c -0.01282,-0.1052283 -0.05019,-0.2432365 -0.08303,-0.306685 -0.05501,-0.1062673 -0.06847,-0.1131226 -0.170691,-0.086965 -0.131998,0.033776 -0.520535,0.022542 -0.667549,-0.019302 -0.100288,-0.028545 -0.09757,-0.030646 0.06957,-0.053876 0.09566,-0.013295 0.2522,-0.03595 0.347861,-0.050344 0.111347,-0.016754 -0.260843,-0.036056 -1.034356,-0.053643 -2.103194,-0.047818 -3.420236,0.043762 -3.940912,0.2740301 -0.303685,0.1343034 -0.79122,0.6520819 -3.6040218,3.8275833 -2.4332473,2.7470059 -3.1804027,3.5460979 -3.8053761,4.0698969 -0.2189244,0.183484 -0.4366302,0.384196 -0.483791,0.446027 -0.1480144,0.194056 -0.3000692,0.563562 -0.3775655,0.917513 -0.067095,0.306447 -0.074512,0.443477 -0.073055,1.34987 0.00155,0.964834 0.00499,1.016379 0.078845,1.18273 0.1597764,0.359861 0.3782118,0.485214 0.6922865,0.397278 0.1263747,-0.03538 0.2171203,-0.100053 0.3985844,-0.284055 0.6905804,-0.70024 2.0179844,-2.517972 4.4265446,-6.061661 1.4219849,-2.0921516 2.0031669,-2.9394332 2.0162669,-2.9394332 0.0067,0 -0.293096,0.4813541 -0.666187,1.0696754 C 10.956026,8.607034 10.437874,9.4249441 10.177669,9.8362906 9.9174637,10.247637 9.4232158,11.022499 9.07934,11.558207 c -0.3954241,0.616012 -0.6622922,1.069895 -0.726067,1.234881 -0.2317166,0.599445 -0.2956624,1.041264 -0.2013941,1.391476 0.023176,0.0861 0.130755,0.344383 0.2390646,0.573972 l 0.1969283,0.417434 -0.00204,0.417434 c -0.00116,0.237496 -0.019352,0.454922 -0.042196,0.5044 -0.034382,0.07447 -0.036588,0.06447 -0.01535,-0.06957 0.013641,-0.0861 0.02406,-0.292447 0.023153,-0.458558 -0.00165,-0.301443 -0.0021,-0.302912 -0.2341621,-0.769821 -0.3391456,-0.682338 -0.3903334,-0.934433 -0.2873259,-1.415039 0.026615,-0.124178 0.044868,-0.229301 0.040562,-0.233607 -0.0043,-0.0043 -0.2653516,0.370868 -0.5801021,0.833718 -1.0699612,1.573413 -1.7834879,2.465825 -2.0658919,2.583821 -0.097521,0.04075 -0.133622,0.09005 -0.2211115,0.301974 -0.1213418,0.293923 -0.1956567,0.622277 -0.1636565,0.723101 0.03,0.09452 0.2552442,0.208615 0.3651876,0.184979 0.047831,-0.01028 0.2121959,-0.04915 0.3652549,-0.08637 z m -0.886582,-0.298836 c 2.687e-4,-0.07175 0.045418,-0.259592 0.1003604,-0.417435 l 0.099896,-0.286985 -0.1612365,-3.59e-4 c -0.1739686,-3.58e-4 -0.4744777,-0.120675 -0.5601926,-0.224273 -0.047002,-0.05681 -0.05461,-0.0482 -0.094991,0.107519 -0.083213,0.320884 -0.065927,0.395236 0.1373888,0.590972 0.1976798,0.19031 0.4104664,0.359988 0.4522207,0.360605 0.014349,2.24e-4 0.026299,-0.05832 0.026555,-0.130062 z M 15.636207,17.090335 c 0.382683,-0.06702 0.663118,-0.165143 1.373631,-0.480632 1.052421,-0.467305 1.528494,-0.591578 2.283347,-0.596036 l 0.478181,-0.0028 1.34e-4,-0.370515 1.35e-4,-0.370515 -0.269593,-0.251893 c -0.547773,-0.511808 -1.121324,-0.903262 -1.834972,-1.252382 -0.893623,-0.437167 -1.540314,-0.601229 -2.382854,-0.604518 -0.632928,-0.0025 -0.95668,0.05442 -1.461019,0.256727 -0.181758,0.07291 -0.60441,0.242798 -0.939228,0.377529 -0.60854,0.244875 -1.341467,0.477781 -1.612776,0.512499 -0.07916,0.01013 -0.003,-0.01973 0.16915,-0.06635 0.532301,-0.144126 1.192711,-0.401105 1.982813,-0.771555 0.645538,-0.302668 1.06113,-0.421212 1.634951,-0.466357 0.951487,-0.07486 2.093132,0.195425 3.113363,0.737079 0.27492,0.145958 0.786277,0.469624 1.182292,0.748337 l 0.08653,0.0609 -0.06913,-0.11012 C 19.220718,14.2001 18.842664,13.750941 18.609076,13.534315 18.020228,12.988223 17.211727,12.58686 16.369894,12.422718 c -0.390164,-0.07607 -1.099588,-0.07642 -1.524483,-7.43e-4 -1.039132,0.185074 -2.230862,0.722688 -3.574012,1.612309 -0.624713,0.413772 -0.603446,0.376059 -0.426848,0.756896 0.186339,0.401842 0.563898,0.692491 1.517632,1.168289 0.315685,0.157488 0.766748,0.39542 1.002363,0.528739 0.720231,0.407532 1.069887,0.548803 1.52099,0.614523 0.31212,0.04547 0.431689,0.0435 0.75069,-0.01236 z m -4.690916,-2.755943 c 0.03385,-0.0088 0.08081,-0.0082 0.104358,0.0013 0.02355,0.0095 -0.0041,0.01675 -0.06154,0.01604 -0.0574,-7.12e-4 -0.07667,-0.0085 -0.04282,-0.01732 z M 10.3099,14.25414 c 0.15651,-0.220023 0.313813,-0.456905 0.349562,-0.526405 0.0754,-0.146578 0.124358,-0.606891 0.153057,-1.439015 l 0.0192,-0.556579 -0.241235,0.473156 c -0.13268,0.260235 -0.305308,0.62312 -0.383618,0.806411 l -0.142383,0.333256 -0.03001,0.642959 c -0.01651,0.353628 -0.041878,0.663856 -0.056383,0.689395 -0.069892,0.123054 0.07182,-0.05768 0.331813,-0.423178 z"
       id="path149" />
  </g>
</svg>
