<?xml version="1.0" standalone="no"?>
<!DOCTYPE svg PUBLIC "-//W3C//DTD SVG 20010904//EN"
 "http://www.w3.org/TR/2001/REC-SVG-20010904/DTD/svg10.dtd">
<svg version="1.0" xmlns="http://www.w3.org/2000/svg"
 width="512.000000pt" height="512.000000pt" viewBox="0 0 512.000000 512.000000"
 preserveAspectRatio="xMidYMid meet">
<metadata>
Created by potrace 1.14, written by Peter Selinger 2001-2017
</metadata>
<g transform="translate(0.000000,512.000000) scale(0.100000,-0.100000)"
fill="#000000" stroke="none">
<path d="M3685 5110 c-462 -6 -624 -11 -705 -23 -144 -21 -233 -44 -310 -80
-107 -49 -270 -220 -1045 -1097 -728 -824 -988 -1100 -1162 -1234 -107 -83
-186 -203 -232 -351 -41 -133 -51 -239 -51 -575 0 -294 -2 -323 -25 -440 -31
-157 -31 -192 0 -259 67 -143 363 -337 710 -466 55 -20 190 -81 300 -135 495
-245 934 -369 1480 -420 181 -17 681 -32 815 -25 146 7 244 23 435 70 255 61
584 181 842 305 128 62 143 72 162 107 49 97 70 307 78 788 7 404 8 394 -68
546 -94 188 -275 405 -448 535 -148 111 -391 218 -591 261 -119 25 -417 25
-545 0 -263 -53 -569 -175 -850 -341 -42 -26 -78 -46 -81 -46 -2 0 -1 48 2
108 2 59 9 206 14 327 6 121 15 240 20 265 16 67 118 267 215 420 47 74 120
190 161 256 l76 122 32 -9 c48 -14 175 -11 239 6 32 8 91 28 132 44 l74 29 26
-43 c67 -115 236 -185 444 -185 69 0 128 6 166 17 33 9 71 16 85 15 14 -1 68
-4 120 -8 82 -5 103 -3 155 16 33 11 79 25 102 30 97 21 173 75 204 146 15 32
28 45 70 64 63 28 125 87 134 128 4 20 -4 64 -25 135 -203 699 -349 980 -520
999 -19 3 -305 1 -635 -2z"/>
</g>
</svg>
